<?xml version='1.0' encoding='utf-8'?>
<svg xmlns="http://www.w3.org/2000/svg" width="178.35mm" height="240.64mm" version="1.1" viewBox="0 0 178.35 240.64"><g transform="translate(878.75 -266.75)"><path d="m-819.63 266.75c-2.3969 0.0442-3.3002 0.39089-4.5982 1.2134-7.5003 4.7526-9.3667 5.8858-12.691 7.706-2.0806 1.1391-5.8067 3.1015-8.2806 4.3605-5.3184 2.7065-9.2994 5.55-7.9375 5.6699 2.9781 0.26213 3.3284 0.73652 0.72761 0.98496-6.5751 0.62808-7.9079 1.1016-10.304 3.6628-4.7756 5.1051-8.6343 13.868-9.7017 22.03-0.2878 2.2001-0.58112 3.3262-1.172 4.4979-1.5464 3.0665-2.5415 7.3964-2.8515 12.411-0.09 1.4552-0.38551 4.015-0.65681 5.6885-2.1918 13.517-2.2135 21.634-0.0899 33.47 0.3655 2.0373 0.78742 3.8232 0.93792 3.9688 0.3019 0.29194 0.10491-6.4341-0.34519-11.774-0.8701-10.325-0.35735-16.174 1.2252-13.97 3.4502 4.8048 4.2952 7.8076 3.1921 11.346-0.4914 1.5762-0.6797 2.6954-0.6227 3.699l0.0816 1.4392 1.6903-2.1167c4.8797-6.1098 7.4778-11.311 8.7431-17.505 0.64-3.133 0.63862-3.1317 1.3539-1.17 0.7159 1.9635 0.53508 1.9712 2.6319-0.10955l1.7322-1.7193 0.72141 2.3704c1.0209 3.3533 2.2341 4.7979 5.303 6.3138 2.8715 1.4184 3.9172 2.6723 3.2727 3.9243-0.6049 1.1751-0.98014 2.7358-0.65784 2.7358 0.4459 0 2.7472-1.7872 3.6711-2.851 1.1921-1.3724 1.3114-1.4188 4.2406-1.649 4.02-0.3159 11.016-3.768 10.22-5.0431-0.4216-0.67508-0.4079-0.68157 3.1316-1.4402 1.7376-0.37243 3.3795-0.74421 3.6489-0.82631 0.5926-0.1806 1.8299-2.7728 1.7115-3.5858-0.0824-0.5657-0.18643-0.58314-3.6566-0.60564-3.3414-0.0216-3.7254-0.0785-5.9531-0.88729-3.1539-1.1451-5.1977-1.5522-8.8635-1.7642-3.7599-0.21749-4.0225-0.28488-3.9181-1.0082 0.3376-2.3406 9.6189-4.0791 15.824-2.9642 6.0892 1.094 6.1718 0.83968 0.45992-1.4159-8.4003-3.3172-12.171-3.8172-18.584-2.4629-7.2952 1.5407-10.585 3.4765-12.397 7.2952-1.8265 3.848-3.0731 3.9558-5.3036 0.45785-0.9381-1.4712-2.932-3.4742-3.4587-3.4742-0.5057 0-0.50458 0.22041 0.01 1.4516 0.6306 1.5093 0.33813 1.3971-1.8423-0.70694-8.202-7.9146 13.018-11.541 39.001-6.6652 8.8582 1.6622 12.337 2.6076 13.872 3.7703 3.8389 2.9086 6.0095 5.4837 7.1598 8.4941 0.8135 2.1288 0.9198 2.2363 1.8061 1.8324 2.2547-1.0273 7.0766 7.6548 7.7292 13.916l0.16536 1.5875-10.008 5.9929c-10.098 6.0462-14.119 8.4022-19.061 11.167-3.4902 1.9529-4.1643 2.7923-1.0945 1.3632 3.2397-1.5082 6.6298-0.61695 4.132 1.0862-8.1335 5.546-10.093 6.9689-9.8852 7.1768 0.3575 0.35756 21.28-11.124 31.336-17.195 3.833-2.3144 6.9944-4.1688 7.0264-4.1212 0.0316 0.0476-0.0575 1.6115-0.19792 3.4752l-0.25528 3.3884-3.4639 2.0608c-1.9051 1.1335-6.2023 3.5811-9.5493 5.439-11.933 6.6238-22.344 12.878-22.354 13.428-0.0241 1.3792 4.0004 0.75478 6.5148-1.0108 3.1537-2.2144 3.9125-2.5412 6.1748-2.6588 3.1902-0.1657 4.8297-1.0812 13.371-7.4662 5.6097-4.1935 8.664-6.4035 8.739-6.3226 0.7633 0.82656-0.72538 9.6066-1.8583 10.96-5.3046 6.3372-11.737 10.894-19.98 14.154-1.0914 0.43163-3.7107 1.5406-5.8208 2.4639-2.11 0.92328-4.0745 1.7642-4.3656 1.8691-0.44659 0.16104-0.32653 0.28214 0.76947 0.77411l1.2986 0.58291-1.6955 0.94154c-11.186 6.2133-22.589 7.5252-27.029 3.1099-2.2984-2.2854-1.1073-3.6297 6.1542-6.9474 3.8107-1.7411 4.5889-2.9669 3.4189-5.3836-1.3646-2.819-2.3576-3.0825-6.7092-1.7808-4.4947 1.3446-8.6186 0.16509-8.6186-2.465 0-2.7016 3.2297-3.4489 10.054-2.327 3.1754 0.52199 4.8372 0.67449 6.0952 0.55862 1.5618-0.14385 1.8258-0.094 2.7254 0.51728 3.3326 2.2646 3.9856 0.50678 0.79065-2.1286-2.5481-2.1018-3.2247-2.3756-4.5563-1.8428-1.3115 0.52474-1.5793 0.44857-7.0394-2.0097-6.6093-2.9756-7.2226-3.0987-9.172-1.8386-1.9391 1.2533-2.9909 1.3542-4.0349 0.38654-1.6418-1.5215 0.0819-3.466 3.3507-3.7801 1.2531-0.12081 1.253-0.12099 1.263-1.2118 0.0168-3.1452 1.179-3.9907 5.1444-3.7429 3.2671 0.20414 4.1508-1e-3 5.5144-1.2826 0.80349-0.75503 0.74735-1.2247-0.14625-1.2247-0.3096 0-1.7612-0.56143-3.2256-1.248-3.2844-1.5398-6.7703-1.8086-8.6966-0.67025-2.0049 1.1849-4.2882 0.80667-6.8006-1.1265-1.8392-1.4152-2.0615-1.4684-1.3741-0.32866 0.4283 0.70992 0.54421 1.529 0.66611 4.6964 0.0987 2.5665 0.30635 4.3619 0.62735 5.424 0.337 1.1159 0.45934 2.2556 0.41134 3.8365-0.1641 5.3615 0.79163 9.4689 3.7584 16.148 3.8206 8.6011 3.6905 8.0196 3.7145 16.528 0.0246 8.5148 0.20605 9.9544 2.264 17.992 2.4215 9.4576 2.6393 12.037 1.4867 17.595-1.3175 6.3536-1.6411 18.406-0.83458 31.089 0.6841 10.76 0.53397 15.437-0.79633 24.822-0.1425 1.0053-0.13925 1.009 0.72295 0.92604 0.8658-0.0833 0.8657-0.0837 1.5782-4.317 2.8029-16.653 3.0393-17.099 3.0923-5.8425 0.0173 3.6259 0.0897 6.5343 0.16071 6.4632 0.1257-0.12575 0.52826-12.717 0.84646-26.482 0.1696-7.3316-0.29185-28.296-0.73225-33.273-0.3588-4.0552-1.8249-12.971-3.0458-18.521-0.4089-1.8587 1.9551 3.2322 3.2277 6.951 3.3372 9.7522 3.9719 15.772 2.7538 26.122-0.6217 5.2836-0.3231 11.403 1.0511 21.543 0.2943 2.1715 0.65942 5.922 0.81132 8.3344 0.1519 2.4124 0.62393 6.4104 1.049 8.8842 0.425 2.4738 0.96795 5.629 1.2066 7.0115 0.2386 1.3824 0.54391 2.7219 0.67851 2.9766h-2e-3c0.8119 1.5357 1.1504-1.9354 0.74001-7.5892-0.2707-3.7296-0.2434-4.6246 0.2899-9.4764 0.6464-5.8813 0.61799-8.5826-0.16381-15.544-0.6206-5.5266-0.39967-12.242 0.54363-16.536 1.6827-7.6595 1.7918-8.3915 1.7808-11.906-8e-3 -2.3528-0.19404-4.4428-0.59014-6.6146-0.6881-3.7746-0.92716-5.9531-0.65216-5.9531 0.11 0 0.60714 0.25201 1.1048 0.55966 1.3461 0.83188 1.3476 0.75675 0.13695-6.5924-1.2825-7.7853-1.2773-7.7256-0.62839-7.7256 1.147 0 1.5457 1.0014 1.8443 4.6302 0.1663 2.0219 0.66138 5.0753 1.2015 7.4083 1.5108 6.5262 1.5325 6.8326 1.3436 19.027-0.1959 12.65-0.0549 14.917 1.3498 21.705 1.0966 5.2983 1.448 8.8071 1.448 14.582 3e-3 6.3764 0.38078 6.6408 2.5978 1.819 1.5707-3.4162 1.8012-4.5862 2.1885-11.095 0.2925-4.9168 0.81809-8.7505 1.2604-9.1927 0.2382-0.23819 1.1512 1.4233 2.2521 4.0995 0.7919 1.9252 1.2963 1.0575 3.729-6.4161 1.8672-5.7365 2.3901-7.9121 3.0603-12.73 0.8927-6.4179 1.7278-6.5576 2.1931-0.36639 0.426 5.6681 0.47385 5.4286-2.3198 11.706-0.7705 1.7313-0.98119 2.5529-1.0232 3.9863-0.0508 1.7484-0.17552 2.0565-3.9398 9.7255-3.9653 8.0783-4.3801 9.1381-5.1175 13.079-0.2315 1.2369-0.64621 3.0675-0.92191 4.0674-0.7943 2.882 0.0442 3.7875 1.3353 1.4423 0.813-1.4766 7.2091-11.354 7.2941-11.263 0.0335 0.036-0.21299 0.95809-0.54829 2.0495-0.3352 1.0914-0.86866 3.2345-1.1855 4.7625s-0.9216 3.7806-1.3441 5.0054c-0.5758 1.669-0.69482 2.3153-0.47542 2.5797 0.784 0.94468 1.3212 0.12528 2.4582-3.7486 1.2862-4.3814 2.1843-6.59 4.8426-11.906 3.1322-6.2638 5.2259-9.2414 3.2758-4.6586-0.7016 1.6485-1.1264 3.2833-2.4402 9.3875-0.1839 0.85455-0.78859 2.3066-1.3436 3.2267-1.2076 2.0023-1.2629 2.6099-0.28112 3.0784 0.6465 0.30853 0.7424 0.52379 0.8599 1.9327 0.1968 2.3582 0.74084 2.1256 1.6965-0.72554 0.7747-2.311 0.77466-2.3108 1.7219-2.1621 1.5945 0.2502 2.8005-1.2279 2.574-3.1543-0.2276-1.9372 0.29877-2.4768 1.3648-1.3994 0.644 0.65087 0.66917 0.74477 0.26097 0.97772-0.5824 0.33239-0.55906 3.6463 0.0289 4.1067 0.5593 0.43788 0.10543 0.89968-0.88367 0.89968-1.0059 0-1.1195 0.11155-2.2412 2.1957l-0.82527 1.5338 0.92966-0.17415c1.107-0.20767 1.2894 0.27041 0.20206 0.52968-1.0852 0.25877-5.3578 2.3176-5.3578 2.5818 0 0.67099 6.1942-0.43059 6.6601-1.1844 0.1046-0.16926 0.27531-0.22238 0.37931-0.11834 0.3223 0.32225-0.64728 1.1542-1.7193 1.4754-1.9286 0.57782-2.0582 4.2731-0.14986 4.2731 1.3871 0 1.4488-0.10479 4.2705-7.276 2.1107-5.3645 4.2364-9.0194 3.898-6.7019-0.8249 5.6465-1.3565 9.6281-1.2955 9.6966 0.2933 0.3273 6.4526-8.3402 11.565-16.274 7.6973-11.947 10.365-16.124 12.816-20.073 1.451-2.337 4.3028-6.5042 6.3371-9.2604s5.2924-7.2142 7.2404-9.9064c6.7843-9.3757 7.7177-10.557 10.278-13.01 5.6077-5.3728 12.508-8.7583 18.566-9.109l2.249-0.13023-1.2568 0.67903c-1.5964 0.862-1.7478 0.78852 1.8025 0.87592 2.9695 0.0731 3.0467 0.0607 2.775-0.44701-0.93998-1.7564 3.0128-0.0191 6.9582 3.0582 0.99669 0.77736 2.6245 1.8401 3.6179 2.3621 3.2154 1.6896 2.645 2.271-0.75964 0.77411-16.266-7.1516-28.031-2.8407-39.349 14.418-3.576 5.4534-8.7904 17.182-10.596 23.833-1.368 5.0389-2.2402 6.5244-4.7558 8.0998-0.9449 0.59141-1.1524 0.85121-1.0196 1.2723 0.479 1.5186 0.41869 1.9655-0.4873 3.6137-0.5073 0.92281-1.2407 2.6515-1.6294 3.8411-0.3888 1.1896-0.88811 2.3134-1.11 2.4975-1.4103 1.1704-2.2622 4.2175-1.3565 4.8519 0.5176 0.36253 0.54856 0.48234 0.24857 0.96273-0.2884 0.46176-0.27222 0.6567 0.10128 1.2268 0.4077 0.62212 0.40902 0.69735 0.016 0.91725-0.6037 0.3379-0.53203 1.0277 0.21187 2.036 1.103 1.495 0.0961 3.3334-1.4015 2.559-1.3688-0.70785-2.8725-0.27397-1.7911 0.51677 1.3938 1.0191 1.1057 2.5078-0.3576 1.8479-1.2845-0.57923-1.3566-0.52771-1.0661 0.76016 0.2363 1.0479-0.82492 1.293-2.4665 0.56948-0.3926-0.17286-0.47077-0.11587-0.39377 0.28577 0.089 0.46315 0.41395 0.50703 4.2338 0.57413l4.1367 0.0729 0.18862-1.6604c0.33549-2.9525 1.3887-6.6116 2.1105-7.3334 1.0379-1.0379 1.2607-0.49324 1.4805 3.6153 0.3076 5.7488 0.0704 5.365 3.3187 5.365 3.0643 0 2.9643 0.0803 2.4851-1.9937-1.6792-7.2679-2.0482-13.451-0.97358-16.306 0.7722-2.0515 2.7227-5.2482 3.2024-5.2482 2.0337 0 5.4815 9.5496 4.0044 11.091-0.8201 0.85608-0.85204 1.3208-0.15244 2.2102 0.784 0.99675 0.65945 1.7893-0.69815 4.4416-1.3835 2.7027-1.3314 3.2562 0.25373 2.683 1.927-0.69681 1.9494-0.59667 0.58239 2.6588-0.1829 0.43552 0.32476 0.46302 8.5648 0.46302 4.8178 0 8.7597-0.0416 8.7597-0.0925s-1.0738-1.9845-2.3864-4.2969c-4.4504-7.8401-5.4893-12.72-3.0184-14.178 1.3011-0.76766 1.1811-1.0681-1.5338-3.8365-2.3091-2.3546-2.4403-2.5489-2.4293-3.6024 0.0208-1.9653 0.18579-2.5688 0.70229-2.5688 0.74479 0 0.803-0.59159 0.2098-2.144-0.3-0.78515-0.61738-2.0827-0.70538-2.883-0.0938-0.85458-0.47506-2.0268-0.92346-2.8401-3.1219-5.6635 13.154-16.503 26.174-17.431 2.2994-0.164 2.2996-0.16408 4.2178-2.0443 2.5205-2.4706 2.6309-2.3779-2.6458-2.2231-9.4128 0.27611-18.438 4.1058-25.873 10.979-2.7109 2.5061-2.8947 1.8613-0.62166-2.1844 8.205-14.604 15.228-19.56 25.142-17.741 1.1439 0.20981 2.8852 0.46229 3.8695 0.56069 2.6187 0.2618 2.2535 1.4774-0.55138 1.835-5.1608 0.65809-13.138 2.7975-14.419 3.867-0.88569 0.73954-0.0676 0.63994 2.4892-0.30282 2.0657-0.76163 9.185-2.3649 10.523-2.3699 0.58958-2e-3 0.61511 0.0644 0.4501 1.1648-0.26423 1.762 1.3112 1.5784 4.6736-0.54415 1.7954-1.1334 3.2211-0.29029 2.0919 1.2371-0.91135 1.2327-0.37854 1.4689 1.1638 0.51574 1.4538-0.89853 1.2672-2.0185-0.45424-2.728-0.26088-0.10753-0.21911-0.24804 0.16537-0.55759 1.4486-1.1663 3.0582 0.28883 3.0582 2.7647 0 2.5416-0.0814 2.6345-4.6436 5.3299-3.0805 1.82-4.0109 2.4858-3.6484 2.6097 0.26763 0.0914 1.8262 0.45076 3.4634 0.79892 3.3698 0.71666 3.234 0.58514 2.1988 2.1265-1.0084 1.5015-0.84079 1.6037 0.68368 0.41599 3.7822-2.9467 8.8881 2.2865 12.807 13.127 0.36006 0.99593 0.36001 0.99636-1.4351 2.7053-2.8971 2.758-1.9728 3.7335 1.401 1.4785 2.2445-1.5002 2.1201-1.5156 4.3806 0.55035 2.5068 2.291 4.3068 5.3461 6.9122 11.733l1.2955 3.175 0.1354-43.051-2.5554-3.1667c-2.9665-3.6767-6.0256-7.1486-9.7508-11.066-4.9731-5.2297-4.9442-5.2862 0.70538-1.3777 7.6851 5.3168 8.1556 5.241 2.5802-0.41651-13.593-13.793-14.815-15.138-13.762-15.138 0.45007 0 2.5374 1.9082 6.5076 5.95 2.9164 2.969 4.3195 4.2016 5.2917 4.6488 2.0228 0.9305 2.8505 1.6604 5.811 5.1227 4.7488 5.5537 5.7247 6.2572 5.257 3.7889-0.22457-1.1854-0.32492-1.3597-3.608-6.2813-6.691-10.03-8.7708-12.398-15.845-18.038-8.319-6.6331-10.955-9.8602-15.708-19.227-2.7618-5.4434-2.8625-5.8972-1.3477-6.0782 1.9314-0.23069 0.66444-3.8466-3.6303-10.361-2.3853-3.618-3.1893-5.0097-3.0024-5.1966 0.40951-0.40951 14.253 12.704 14.102 13.359-1.2304 5.3418-0.0379 6.8412 2.7828 3.499 2.3316-2.7628 1.6182-3.0748 8.1137 3.5455 6.4429 6.5667 9.556 10.11 12.63 14.375 3.939 5.4645 3.325 1.8594-0.72708-4.269-4.0004-6.0501-4.9301-9.4047-1.7203-6.2074 0.92061 0.91704 1.0338 0.977 0.62425 0.33073-1.9561-3.0867-5.3023-7.2128-10.411-12.837-4.9927-5.4967-4.6374-4.7159-4.2602-9.3565 0.5575-6.8579-0.42182-14.387-2.5223-19.392-4.9362-11.761-7.942-16.914-13.004-22.294-3.1865-3.3869-3.5011-3.8382-4.1176-5.9113-1.1702-3.9352-2.1326-5.2394-6.1598-8.3509-4.2984-3.321-5.4416-4.8162-7.1029-9.2899-0.5693-1.5329-1.9204-4.6151-3.0029-6.8492-2.2422-4.6272-2.1853-4.4252-1.3069-4.6457 2.4276-0.60928-2.7415-7.3264-10.882-14.141-4.3736-3.6613-7.6494-5.2868-14.386-7.1386-2.11-0.58006-7.2838-2.2594-11.497-3.7321-8.5414-2.9855-8.8775-3.0551-16.79-3.4716-2.9216-0.15378-4.8974-0.23633-6.3355-0.2098zm13.936 7.1768c1.5083-0.0196 1.4453 0.0558 0.71262 0.31213-0.5821 0.20362-1.2719 0.37947-1.5332 0.39067-1.886 0.0807-1.941 2.0573-0.10077 3.6184 0.8975 0.76141 0.67504 0.89336-2.668 1.5839-2.0296 0.41923-3.9567 1.0617-4.4158 1.4723-0.1396 0.12489 1.0684 0.22479 2.7192 0.22479 10.285 0 26.596 3.561 35.608 7.7737 3.6077 1.6864 3.0763 1.743-1.6593 0.17621-11.668-3.8604-24.451-6.0902-34.939-6.0952-5.7903-3e-3 -6.4296 0.11345-2.9084 0.52865 3.9918 0.47069 4.0599 0.49034 3.5734 1.0278-0.5992 0.66219-0.57402 0.68216 0.96738 0.76016 2.5236 0.12773 6.2828 1.108 6.2828 1.6381 0 0.10754-1.4586 0.27497-3.2412 0.37207-1.7827 0.0971-3.509 0.2483-3.8364 0.3359-0.5991 0.16021-0.8353 0.62632-0.3173 0.62632 0.5488 0 7.471 3.8544 8.415 4.6855 0.5303 0.46689 0.90499 0.84929 0.83199 0.84956-0.0728 3.8e-4 -2.563-1.0098-5.5335-2.2448-9.5546-3.9722-15.524-5.9713-18.876-6.3211-1.3968-0.14575-1.85-0.3017-2.0702-0.71314-0.2193-0.40985-0.527-0.51739-1.387-0.48369-1.7428 0.0683-1.9343 0.0276-2.5967-0.55345-0.6595-0.57842 1.9894-0.60691 7.4636-0.0806 1.6995 0.1634 1.7607 0.14724 2.744-0.72657 0.55309-0.49153 1.6162-1.1917 2.3626-1.5555 1.291-0.62923 1.7059-1.2582 0.74621-1.1312-2.9493 0.39025-3.6952 0.25287-1.0273-0.18913 1.7183-0.28468 3.4448-0.69431 3.8365-0.91054s1.6348-0.83176 2.7626-1.3679c2.3653-1.1244 2.4196-1.223 0.98702-1.7963-1.4443-0.57788-2.1312-0.53877-4.3067 0.24598-1.4541 0.52451-1.9075 0.59764-2.0702 0.33435-0.2884-0.46649 0.2244-0.70181 2.4784-1.1379 1.0556-0.20425 2.6336-0.62418 3.5068-0.93328 1.2584-0.44549 2.3829-0.58407 5.424-0.66817 0.88535-0.0245 1.5627-0.0415 2.0655-0.0481zm-20.144 14.978c0.29011 4e-3 1.0806 0.24459 2.4019 0.72088 11.21 4.0407 27.696 11.829 37.769 17.842 2.0373 1.2162 4.3975 2.5482 5.2446 2.96 1.5935 0.77463 3.6011 2.4812 5.0064 4.2556l0.80873 1.0211-1.4288-0.9095c-4.7434-3.0196-30.245-16.205-33.047-17.086-1.2398-0.38994-3.0192-0.4975-3.1399-0.18966-0.0535 0.13648 4.3518 3.0317 9.7896 6.4337 18.169 11.367 36.007 24.301 37.987 27.544 1.0602 1.7362-0.48006 0.88261-3.3616-1.8629-12.48-11.891-34.121-25.789-49.818-31.994-1.9198-0.75888-3.2954-0.70456-2.0407 0.0806l0.92604 0.57981-1.4552 0.21187c-4.2639 0.62066-4.6173 0.89079-2.3115 1.7689 5.1486 1.9607 6.3646 2.7573 4.9573 3.2479-0.9896 0.34504-1.0152 0.69421-0.0661 0.90795 3.1459 0.7085 3.5619 1.0922 1.3229 1.2211l-1.3891 0.0801 1.25 0.73484c0.6875 0.40417 2.1964 1.4479 3.3528 2.3192 3.484 2.6253 10.353 5.8313 20.929 9.7684 5.3481 1.9908 8.9493 3.6328 10.736 4.8958 1.1779 0.83252 1.2455 0.85181-2.6665-0.75964-2.0752-0.85485-3.5179-1.268-5.0271-1.4392-4.4283-0.50239-32.575-13.168-33.017-14.856-0.0734-0.28067-0.48816-0.55187-1.016-0.66404-2.941-0.62497-6.5805-2.5587-6.5805-3.4964 0-0.62719 1.3605-0.30147 4.5641 1.0935 3.1305 1.3631 3.2492 1.3893 3.4882 0.76636 1.0035-2.615-10.311-5.5829-23.258-6.1009l-4.7708-0.1912 3.3073-0.20154c1.819-0.1109 6.0916-0.12749 9.495-0.0367 4.369 0.11657 6.1367 0.0822 6.0131-0.11782-0.7003-1.133-7.3941-4.7551-11.398-6.1676-2.6845-0.94693-1.7497-0.98826 2.4112-0.10697 4.8583 1.029 7.5143 2.0685 6.8874 2.6954-0.3194 0.31945 0.36457 1.1079 1.7715 2.0417 2.2246 1.4766 2.6606 1.5818 3.5305 0.85111 0.4418-0.37105 1.2703-0.69168 2.0717-0.8015 1.5349-0.21034 2.1162-0.49399 1.8604-0.90795-0.4765-0.77103-7.6636-3.9223-11.265-4.9392-4.5658-1.2891-3.4035-1.6054 1.9844-0.54002 3.7094 0.73344 8.143 1.9897 10.929 3.0965 3.0327 1.2047 2.8647 1.0399-3.1388-3.0753-0.681-0.4668-0.89111-0.69831-0.601-0.69401zm-29.902 14.822c5.9422-0.0193 13.137 0.75062 19.934 2.3146 4.131 0.95049 9.8153 2.5712 10.572 3.0143 0.5192 0.30396-0.4391 0.29444-1.973-0.0196-16.253-3.3278-31.27-4.1284-39.712-2.1172-2.5294 0.60262-2.6788 0.5095-1.2397-0.77256 1.7868-1.5918 6.4767-2.4002 12.419-2.4195zm2.4381 3.5331c1.5485-0.0217 3.1934-0.0181 4.9284 0.0114 12.519 0.21265 21.448 2.1034 38.306 8.1122 25.491 9.0859 41.034 16.954 49.866 25.244 1.7477 1.6404 2.0115 3.1269 0.29817 1.6805-0.3817-0.32219-2.0485-1.7288-3.7042-3.1254-5.7532-4.8531-11.426-8.3228-14.711-8.9984-1.4128-0.29058-2.6984-0.12804-1.7281 0.21859 3.1291 1.1178 11.847 6.1716 15.149 8.7814 5.0514 3.9929 6.6141 5.6117 6.6141 6.8518 0 0.81853-0.13634 0.75673-1.8629-0.84181-1.5807-1.4634-5.3721-4.1336-5.8694-4.1336-0.1538 0 0.30271 0.50422 1.0144 1.1203 4.0913 3.5418 5.2576 4.9439 4.6328 5.5687-0.2874 0.28746-1.2656-0.30353-4.331-2.6164-2.4033-1.8133-1.235-0.65743 2.2929 2.2686 3.5082 2.9098 4.3878 3.8379 4.3878 4.6297 0 0.70211-0.87014 0.41377-2.5135-0.83354-4.819-3.6575-11.965-7.983-19.091-11.556-4.5396-2.2759-4.5398-2.2763-4.3972-3.3393 0.0862-0.64215 0.0351-1.063-0.12867-1.063-0.3149 0-0.59222 0.6226-0.59222 1.3291 0 0.42583-0.40068 0.30358-2.9802-0.90847-14.41-6.771-34.193-12.863-52.119-16.051-3.6673-0.65218-4.0836-0.88028-2.0479-1.1214 2.981-0.35306 13.456 1.4505 24.447 4.209 4.7856 1.2011 7.1464 1.4732 3.729 0.42995-20.953-6.3964-45.999-8.5771-56.885-4.9537-0.3805 0.12664-0.30611-0.0157 0.26458-0.50643 1.8678-1.6061 7.2129-2.9691 12.7-3.238 4.5061-0.22091 5.3813-0.58229 1.4552-0.60099-4.8045-0.0228-9.9576 0.43821-12.712 1.1374-3.0095 0.76394-2.9656 0.78921-1.6619-0.95084 1.4852-1.9823 1.4778-1.9624 1.0986-3.0112-0.80079-2.2144 5.3127-3.5913 16.152-3.7429zm-3.2277 10.111c3.4263-0.0235 6.8968 0.1975 9.7322 0.6997 2.7888 0.49395 3.8078 1.54 3.3212 3.4106h-5.2e-4c-0.252 0.969-9.2662 1.0352-9.9906 0.0734-0.4102-0.54511-0.43143-2.5643-0.0346-3.3057 0.2606-0.48689 0.23716-0.52622-0.19843-0.33383-0.2716 0.11995-2.0891 0.30772-4.0385 0.41755-4.5703 0.2575-8.6762 0.69748-11.008 1.1787-2.3908 0.49354-2.5916 0.4704-1.3973-0.1602 2.3166-1.2233 7.9036-1.9411 13.614-1.9802zm106.01 3.5812c0.18221 0 1.5957 2.9358 4.331 8.9958 2.531 5.6073 5.961 16.824 6.195 20.259 0.12027 1.7651 0.40555-1.8568 0.32815-4.1662-0.15889-4.7402-1.4296-10.059-3.2789-13.723-0.91474-1.8121-0.71317-1.9664 1.0821-0.82786 1.5122 0.95901 2.9964 2.6552 5.162 5.8978 1.02 1.5273 2.1004 2.8189 2.6314 3.1471 4.8209 2.9795 11.483 26.84 8.8615 31.739-0.57973 1.0832-0.11475 1.5478-8.7292-8.7235-4.5192-5.3884-8.91-10.38-12.682-14.419-4.3451-4.652-4.689-5.7431-2.5373-8.0434 1.4321-1.531 1.4433-1.697 0.26458-3.9181-1.1271-2.1239-1.1283-2.1841-0.10386-4.284 0.98002-2.0088 0.94247-2.5349-0.43512-6.102-0.84948-2.1996-1.5277-5.8317-1.0888-5.8317zm-45.969 17.01c0.21819-0.0651 0.7182 0.39649 1.8324 1.5306 2.029 2.0653 3.1794 2.725 5.9407 3.407 6.5777 1.6248 8.9668 6.1099 6.181 11.604-1.7498 3.4512-2.094 3.3622-2.3141-0.59945-0.3165-5.6967-1.2855-7.4441-4.2881-7.7334-2.6676-0.25702-7.5122-5.1295-7.5122-7.5551 0-0.38649 0.0293-0.61516 0.1602-0.65422zm-41.906 1.5813c2.8268 0.0346 5.7985 0.6155 5.9795 1.5828 0.097 0.51858-1.8317 0.60386-4.1858 0.185-0.6548-0.11652-2.5484-0.22071-4.208-0.23151-3.0025-0.0195-3.0153-0.0222-2.5378-0.54984 0.6422-0.70966 2.7535-1.0134 4.9522-0.9865zm22.813 10.661c-3.1647-0.0153-11.08 0.59545-12.633 1.0723-0.6321 0.19411-0.43746 0.6994 0.36484 0.94671 2.0926 0.64509 14.46-1.0866 13.564-1.8991-0.0878-0.0795-0.56521-0.11637-1.2955-0.11989zm47.417 4.1693c0.0866 0.0461 0.091 0.25903 0.091 0.60306 0 1.2095-0.82415 2.4798-2.3906 3.685-1.4299 1.1002-3.1657 4.0677-3.1657 5.4116 0 0.2881 2.641-1.059 4.4933-2.2918 1.0976-0.73055 1.8567-0.79351 1.8567-0.15399 0 1.8785-4.1643 6.7384-6.9112 8.0656-3.1903 1.5414-4.3045 1.2651-5.4772-1.3575-1.0722-2.3978-1.082-2.3191 0.48938-3.8669 1.7786-1.7518 1.6768-2.1342-0.54002-2.0268-2.2685 0.10993-2.7837-0.25254-2.7487-1.9337 0.036-1.7168 1.1878-2.9771 1.9038-2.0831 1.7575 2.1947 7.661 0.72192 10.92-2.7244 0.96181-1.0172 1.3346-1.4038 1.479-1.327zm-36.81 1.3312c-0.58353 6e-3 -2.3334 1.0098-6.0761 3.2634-12.765 7.6864-18.494 11.369-18.263 11.741 0.214 0.3463 0.12307 0.38517 2.4159-1.033 3.8477-2.3799 7.0876-3.9761 9.4635-4.6622 3.3439-0.96568 11.281-6.0615 12.195-7.83 0.49557-0.9583 0.69091-1.4842 0.2651-1.4795zm56.692 0.96532c1.6501 0 9.5782 8.364 9.5782 10.105 0 0.4997-0.61081-0.0189-4.6194-3.9228-5.181-5.0457-6.0925-6.182-4.9589-6.182zm-36.146 4.6762c0.55358 0.12357 1.7506 1.4212 2.8122 3.4628 4.5057 8.6644 6.9367 18.69 6.9267 28.63-5e-3 10.072-1.9546 13.797-7.8822 15.056-11.8 2.506-16.511-9.6681-11.81-30.526 2.2504-9.9854 7.5236-20.269 7.5236-14.672 0 1.7518 0.89681 2.785 2.1921 2.526 1.3328-0.26656 1.3805-0.5084 0.48007-2.4324-0.71426-1.5264-0.67292-2.1404-0.24236-2.0443zm-0.80718 4.8819c-0.34272-2e-3 -1.0231 1.1625-1.7182 3.0897l-0.69402 1.9244 0.92036 0.54312c0.6744 0.3979 1.003 0.8373 1.2304 1.6438 0.3104 1.1006 0.31068 1.1002 0.51418 0.30644 1.1149-4.3502 1.0952-4.1496 0.51574-5.3449-0.2965-0.61144-0.53899-1.2891-0.53899-1.5058 0-0.44706-0.0847-0.65595-0.22944-0.65681zm-0.18397 11.046c-0.53964 1e-3 -1.0976 0.56194-2.2324 1.7513l-0.92605 0.97048 1.5338 1.434c1.8435 1.7233 1.5642 1.7203 3.437 0.0341l1.5317-1.3787-1.5741-1.556c-0.83171-0.82218-1.2938-1.2564-1.7699-1.2552zm60.565 2.466c2.0937 0.0734 9.2829 6.691 10.484 9.8506 0.34558 0.90895 0.0831 0.84507-1.1829-0.28732-0.58207-0.52064-2.9147-2.5402-5.1837-4.4881-3.9067-3.3539-5.0525-4.6368-4.4654-4.9997 0.091-0.0562 0.2082-0.0803 0.34778-0.0754zm-52.656 5.1149c-0.18845 0.0281-1.1306 0.67208-3.3951 2.25-4.9259 3.4324-4.3193 3.4221-9.0713 0.15141-1.6076-1.1064-3.0004-2.0118-3.0954-2.0118-0.1836 0 5.4738 6.2322 6.8058 7.4972l0.79013 0.75086-0.76946 0.83664c-0.4232 0.46037-2.1627 2.3424-3.8659 4.1817-1.7033 1.8393-3.097 3.4198-3.097 3.5124 0 0.2241 1.1214-0.36797 3.9688-2.0944 4.2932-2.6033 3.434-2.591 7.5525-0.10542 4.5816 2.765 4.5858 2.6857 0.11265-2.2567l-3.7445-4.1372 1.959-2.0417c1.9745-2.0576 4.2759-4.5642 5.4973-5.9872 0.30712-0.35777 0.46551-0.56259 0.35243-0.5457zm24.875 3.7688c0.96962 0.0167 4.8485 3.8387 6.52 6.9748 0.65154 1.2224 0.80835 1.809 0.74465 2.7823-0.0833 1.2733-5.326-4.9061-7.075-8.339-0.51275-1.0064-0.51286-1.4236-0.18965-1.418zm-111.82 1.8722c0.35384 0.0349 0.5961 0.19731 0.5886 0.50332-0.0188 0.74831-0.69468 2.441-1.1953 2.9941-0.6753 0.74623-1.6595 0.66311-1.9751-0.16692-0.4221-1.1103-0.30107-1.6999 0.51573-2.5166 0.57587-0.57587 1.4763-0.87208 2.066-0.8139zm36.61 3.9708c-0.12367-6e-3 -0.68365 0.21009-1.8784 0.67076-1.2369 0.47693-3.4098 1.2543-4.8286 1.727-2.9939 0.99741-2.9382 0.88911-1.3648 2.6391 1.4831 1.6496 0.94952 1.8133 4.0018-1.2283 1.4238-1.4188 3.0052-2.9004 3.5145-3.2923 0.43411-0.33402 0.66465-0.51129 0.55552-0.51625zm53.304 12.248c0.12565 0.0526 0.12584 0.31131 0.0295 0.90537-0.1482 0.91291-0.0793 1.0866 0.68471 1.7244 0.8496 0.70926 0.84989 0.70927 0.37569 1.7038-0.4743 0.9945-0.4745 0.99435 0.2527 1.7534 0.6744 0.70386 0.70404 0.82399 0.40514 1.6506-0.2531 0.70491-0.25158 1.0499 0.01 1.6505 0.6159 1.4152 0.4073 11.012-0.2806 12.906-0.3123 0.85952-0.56793 2.0554-0.56793 2.6572 0 0.9414-0.16028 1.2515-1.1493 2.2221l-1.1493 1.1281-0.16589-3.0939c-0.1955-3.6493-0.13604-3.5425-1.4531-2.5957-1.0385 0.74645-1.0382 0.74646-1.2237 4.3279-0.1128 2.1771-0.38622 4.3055-0.69712 5.4281-0.6026 2.1755-0.61657 2.3384-0.18087 2.1177 0.1819-0.0921 0.11401 0.01-0.15089 0.22582-0.265 0.21627-0.72421 1.2074-1.0206 2.2024-0.7763 2.6062-1.4028 3.2182-1.648 1.6108-1.3448-8.8154-1.8363-9.1342-2.1053-1.3653-0.0983 2.8368-0.25265 5.8674-0.34365 6.7345h-2e-3c-0.2208 2.1122-0.22903 2.1045-2.3931-2.0619-2.7395-5.2744-3.4095-9.0904-3.1869-18.152 0.1295-5.2707 1.329-11.989 2.3172-12.978 0.6266-0.62665 2.0594 1.6044 1.5916 2.4784-0.1864 0.34831-0.1545 0.57078 0.1142 0.79375 0.5143 0.4268 1.4646 4.6309 1.6542 7.3174 0.1933 2.7392 0.49651 2.8617 0.66301 0.2682 0.092-1.4344 0.30406-2.2703 0.80306-3.1631 0.69849-1.2497 0.62804-1.5892-0.37466-1.804-0.4393-0.0941-0.21336-0.82663 1.6996-5.5185 0.1484-0.3638 0.28272-1.0469 0.29972-1.5183 0.0405-1.152 0.55513-0.9769 0.57413 0.19534 8e-3 0.50932 0.21954 1.376 0.46974 1.926 0.6802 1.4948 1.4712 5.0869 1.8366 8.3401l0.32452 2.8892 0.99219-0.62839c1.409-0.89238 1.4718-2.0143 0.0661-1.1849-1.2119 0.71526-1.1793 0.35157 0.0708-0.78134 0.9962-0.90329 0.99616-0.90331 1.0682-5.1366 0.1268-7.5081 0.92092-14.93 1.6221-15.163 0.0708-0.0236 0.12658-0.0289 0.16846-0.0114zm-20.816 1.9963c1.3878-0.17935 1.9207 4.803 2.0733 17.412h-5.2e-4c0.1585 13.092 0.25494 12.346-1.3183 10.151-1.8171-2.5352-2.284-3.7762-2.5952-6.8926-0.4981-4.9876-0.20706-12.038 0.55604-13.464 0.15409-0.28802 0.10482-0.60806-0.14418-0.93689-0.5399-0.71325-0.48513-1.1246 0.28267-2.1311 0.6774-0.88795 0.67707-0.88798 0.0977-1.7017-0.579-0.81372-0.57878-0.81371-0.0548-1.5182 0.41715-0.56087 0.78303-0.87742 1.1033-0.91881zm41.968 0.94103c1.1282-0.0507 1.9255 1.6333 1.1219 2.621-0.4667 0.57356-2.9947 2.4452-6.5484 4.8483-1.6734 1.1316-3.8314 2.6381-4.7951 3.3471-1.9491 1.434-2.0815 1.4878-2.0815 0.82579 1e-3 -0.25466 0.56492-0.85186 1.2521-1.3271 1.9328-1.3366 7.2125-5.7055 7.0688-5.8492-0.0706-0.0705-0.98957 0.48551-2.0428 1.2356-1.0532 0.75006-3.1058 2.0991-4.561 2.9978-1.4552 0.89867-3.7472 2.3896-5.0932 3.3135-2.8388 1.9486-3.3752 2.1257-2.7172 0.89606 0.7142-1.3345 16.357-12.421 18.167-12.875 0.0778-0.0195 0.15423-0.0302 0.22944-0.0336zm7.0471 1.8976c0.17186 0.0514-0.50912 0.57651-2.0976 1.5591-1.2971 0.80237-4.5479 3.0318-7.2244 4.9542-5.2696 3.7851-5.533 3.945-5.533 3.361 0-0.89692 7.8453-6.591 11.836-8.5907 1.8218-0.91279 2.8466-1.335 3.0184-1.2836zm-83.94 1.5002c0.64646-0.0227 0.71707 0.3905 1.6195 4.4741 0.7953 3.5988 3.0468 12.536 4.1243 16.372 0.5059 1.8014 0.86326 3.3319 0.79426 3.4008-0.529 0.52897-4.2876-9.2767-5.4555-14.232-0.461-1.956-1.1367-4.747-1.5017-6.2022-0.9152-3.6492-0.91417-3.6874 0.10283-3.7858 0.11996-0.0116 0.22391-0.0236 0.31626-0.0269zm86.04 17.53c0.74429-0.029 1.3176 0.0836 1.6123 0.37827 0.17856 0.17854 0.23615 0.32453 0.12815 0.32453-2.0901 0-5.2505 1.1832-7.2652 2.7197-0.77147 0.58839-1.9844 1.3392-2.6954 1.6686-0.9963 0.4616-1.6234 1.0458-2.7337 2.5471-0.7923 1.0714-2.0797 2.4422-2.8608 3.0463s-1.8908 1.582-2.466 2.173c-2.0945 2.1518-2.288 0.83434-0.28835-1.9632 1.2591-1.7616 3.5249-4.0006 4.8173-4.7599 0.4605-0.27057 0.96055-0.76213 1.111-1.0924 0.97183-2.133 7.4154-4.9164 10.641-5.0421zm-87.626 10.078c0.7465 0.46137 2.3182 21.983 1.7193 23.543-0.203 0.52895-0.6115 0.54048-0.7736 0.0217-0.0682-0.21828-0.18871-0.5997-0.26871-0.84801-0.3994-1.244-1.0461-22.945-0.67697-22.717zm113.68 9.3054c0.87134-0.097 2.0596 1.2481 5.7934 6.256 1.0187 1.3663 0.8103 1.2656-1.7368-0.84026-1.2191-1.0079-2.8712-2.3546-3.6716-2.9926-1.6347-1.303-1.7712-1.724-0.74569-2.2996 0.11803-0.0662 0.23622-0.10965 0.3607-0.1235zm-124.52 29.744c-1.0617 0.0418-1.913 2.9217-1.5922 6.3474 0.1565 1.6714 0.28732 5.9556 0.28732 9.5209 2e-3 3.5652 0.0796 7.292 0.1726 8.2817 0.2898 3.0688 0.5678 1.6161 0.8754-4.5775 0.3275-6.5934 0.61833-9.8741 1.2433-14.023 0.5537-3.6753 0.54366-4.0171-0.14934-4.9904-0.28204-0.39609-0.56652-0.56979-0.83716-0.55914zm50.788 2.3745c-0.1064 0-0.38951 0.8632-0.62941 1.9182-0.2398 1.055-0.78512 2.7906-1.2118 3.8566s-0.76636 2.0186-0.76636 2.1167c0.0368 0.68985 3.9594-5.6943 3.9594-6.444 0-0.37573-1.001-1.4474-1.3519-1.4474zm-3.0138 8.7731-1.0015 1.1596c-1.2005 1.3894-2.3027 3.249-2.3027 3.9011-4e-3 0.5337 0.68504 0.29268 1.3079-0.45786 0.2247-0.27076 0.7892-0.41134 1.6521-0.41134 1.0961 0 1.4374-0.1264 2.0841-0.77308 0.9199-0.91995 1.0367-1.8728 0.22944-1.8728-0.2993 0-0.86477-0.34752-1.2568-0.77257z" stroke-width=".26458"/></g></svg>